<?xml version="1.0" standalone="no"?>
<!DOCTYPE svg PUBLIC "-//W3C//DTD SVG 20010904//EN"
 "http://www.w3.org/TR/2001/REC-SVG-20010904/DTD/svg10.dtd">
<svg version="1.0" xmlns="http://www.w3.org/2000/svg"
 width="700.000000pt" height="700.000000pt" viewBox="0 0 700.000000 700.000000"
 preserveAspectRatio="xMidYMid meet">
<metadata>
Created by potrace 1.14, written by Peter Selinger 2001-2017
</metadata>
<g transform="translate(0.000000,700.000000) scale(0.100000,-0.100000)"
fill="#000000" stroke="none">
<path d="M3376 6984 c-110 -35 -162 -93 -153 -172 5 -44 50 -183 112 -347 14
-37 24 -69 23 -70 -61 -34 -88 -75 -88 -133 0 -46 28 -102 61 -120 31 -18 31
-19 14 -117 -10 -59 -19 -131 -17 -137 1 -5 -10 -8 -26 -9 -37 -1 -202 -22
-262 -34 -355 -70 -690 -221 -979 -439 -51 -39 -103 -78 -115 -87 -20 -15 -26
-12 -122 56 -91 64 -100 73 -94 95 4 14 6 36 4 50 -1 14 -3 30 -3 37 -2 18
-71 83 -98 89 -13 4 -42 4 -63 1 l-38 -5 -32 77 c-55 132 -133 281 -164 317
-64 72 -174 46 -291 -70 -132 -130 -160 -268 -68 -334 39 -28 152 -84 277
-138 l101 -43 0 -55 c1 -59 18 -92 67 -129 32 -24 94 -33 114 -16 8 6 16 10
18 8 1 -2 33 -49 71 -104 44 -65 64 -103 59 -111 -5 -7 -42 -55 -81 -107 -231
-302 -402 -695 -459 -1054 -3 -19 -7 -43 -9 -52 -1 -9 -6 -51 -10 -93 -4 -43
-11 -79 -16 -79 -5 -1 -12 -2 -16 -3 -5 -2 -30 -6 -58 -11 -27 -4 -57 -9 -67
-11 -94 -16 -103 -16 -113 8 -14 33 -72 68 -112 68 -62 0 -104 -27 -138 -88
-1 -1 -50 16 -109 38 -174 64 -294 100 -335 100 -57 0 -114 -60 -141 -147 -30
-97 -22 -214 19 -296 56 -113 103 -124 276 -66 55 18 102 33 105 34 3 1 12 5
20 8 38 16 153 57 160 57 4 0 12 -11 18 -25 16 -35 84 -64 135 -59 48 4 83 26
105 63 l15 27 66 -12 c36 -7 89 -15 116 -19 28 -3 53 -9 56 -13 4 -4 9 -34 12
-67 28 -293 123 -608 269 -885 46 -86 187 -298 255 -382 l46 -58 -63 -95 -63
-95 -47 6 c-54 7 -81 -4 -123 -50 -34 -37 -47 -82 -34 -119 5 -15 8 -29 6 -30
-2 -2 -26 -12 -54 -24 -236 -102 -348 -164 -368 -205 -20 -41 -12 -101 21
-173 73 -155 230 -250 344 -206 45 17 99 112 199 346 24 57 43 89 51 86 27 -9
87 -2 116 13 55 28 88 107 69 163 -7 18 5 29 96 90 l103 70 35 -30 c163 -139
409 -287 624 -374 227 -92 403 -136 670 -168 28 -3 53 -9 57 -13 4 -4 10 -29
14 -57 3 -27 8 -59 10 -70 2 -11 7 -44 10 -72 6 -44 4 -53 -9 -53 -25 0 -66
-62 -71 -107 -4 -40 24 -123 41 -123 4 0 16 -7 27 -15 18 -14 17 -19 -32 -152
-102 -281 -108 -320 -52 -378 116 -120 406 -107 491 22 33 49 23 101 -66 345
-30 83 -54 152 -53 153 58 31 88 78 88 135 0 45 -27 97 -61 117 -25 15 -29 22
-24 48 2 16 10 67 16 112 7 45 15 86 18 92 4 6 31 13 61 15 69 6 114 13 215
32 120 23 122 23 152 35 16 6 28 10 28 9 0 -5 99 25 175 52 242 88 482 222
671 374 44 35 84 64 90 64 5 0 54 -30 108 -67 96 -66 98 -68 90 -98 -5 -16 -7
-39 -4 -50 2 -11 4 -25 4 -32 2 -33 106 -103 141 -96 3 1 17 4 30 8 24 6 28 1
64 -87 57 -136 133 -282 163 -312 27 -27 40 -30 108 -27 54 2 155 55 208 108
51 51 94 131 101 187 7 55 -15 99 -67 134 -50 35 -244 128 -325 157 -53 19
-53 20 -47 53 7 37 -9 97 -34 126 -9 10 -32 26 -52 37 -35 17 -45 18 -94 4
-16 -4 -32 12 -87 94 -38 55 -68 102 -68 105 0 4 26 39 58 79 33 39 81 106
108 147 27 41 52 77 57 78 4 2 7 7 7 11 0 4 25 52 55 106 148 267 255 612 281
905 4 36 7 66 8 66 0 1 46 9 101 18 55 9 110 19 122 21 16 4 26 -2 39 -25 48
-80 180 -82 234 -4 21 32 24 33 49 20 41 -21 289 -106 355 -121 53 -13 64 -12
94 2 94 45 145 213 102 337 -37 109 -84 177 -136 196 -33 13 -206 -37 -409
-118 l-51 -20 -16 28 c-31 54 -123 79 -180 49 -33 -17 -68 -50 -68 -65 0 -8
-9 -11 -22 -9 -13 2 -68 11 -123 20 -54 9 -100 17 -102 19 -2 1 -5 22 -7 47
-12 119 -19 162 -37 254 -11 55 -24 114 -29 130 -87 289 -163 463 -294 670
-54 87 -178 256 -201 275 -12 10 -3 29 56 116 l70 103 48 -6 c60 -7 102 13
136 65 26 40 32 71 21 112 -6 23 -1 27 76 59 138 57 287 134 318 164 46 45 45
112 -5 214 -30 61 -60 96 -120 141 -41 30 -136 60 -182 56 -50 -4 -70 -20
-112 -92 -33 -56 -133 -272 -154 -334 -5 -14 -12 -16 -29 -9 -30 11 -76 4
-113 -17 -36 -21 -76 -94 -68 -125 11 -49 7 -55 -85 -121 -51 -36 -97 -66
-102 -66 -5 0 -55 35 -112 79 -281 214 -579 355 -924 437 -38 9 -78 18 -89 19
-11 2 -49 8 -85 14 -36 6 -90 13 -120 16 -30 4 -58 9 -61 13 -7 7 -39 199 -39
232 0 11 6 20 13 20 30 0 60 48 71 114 5 30 -25 116 -41 116 -4 0 -16 7 -27
15 -17 13 -16 20 33 155 29 78 62 178 73 222 l22 80 -24 44 c-18 36 -35 50
-85 75 -52 25 -77 31 -151 35 -63 3 -103 -1 -138 -12z m166 -1365 c11 -6 26
-26 34 -45 12 -29 12 -39 0 -68 -37 -88 -160 -69 -173 27 -9 69 74 121 139 86z
m223 -440 c283 -43 577 -170 803 -348 l68 -54 -64 -65 c-53 -55 -63 -70 -60
-93 4 -24 -6 -38 -63 -95 l-68 -67 -83 -1 c-73 -1 -92 -5 -148 -33 -68 -34
-124 -81 -176 -148 -43 -55 -62 -94 -77 -162 -39 -173 69 -259 247 -198 129
44 241 156 290 287 17 47 24 148 10 169 -4 6 24 42 66 84 65 66 75 72 97 64
22 -8 32 -2 93 57 l68 65 22 -23 c51 -54 139 -181 197 -282 35 -61 63 -113 63
-118 0 -4 11 -31 24 -60 52 -115 108 -334 121 -475 l6 -63 -96 0 c-90 0 -97
-2 -122 -26 -23 -23 -35 -27 -97 -28 -77 -2 -69 -7 -149 87 l-48 57 -278 0
c-275 0 -278 0 -298 -22 -26 -29 -35 -56 -22 -64 6 -3 127 -5 269 -5 237 1
260 -1 269 -17 12 -22 12 -34 -1 -49 -8 -10 -76 -13 -278 -13 l-267 0 3 -27
c1 -16 2 -30 3 -34 1 -3 120 -5 266 -5 145 0 267 -3 271 -7 11 -10 7 -59 -4
-66 -7 -4 -129 -7 -272 -6 -173 0 -261 -4 -264 -11 -9 -24 22 -71 50 -76 16
-3 146 -6 289 -5 l260 0 31 33 c17 18 44 53 60 78 l29 46 71 0 c62 0 73 -3 94
-25 22 -23 30 -25 122 -25 l99 0 -6 -57 c-10 -101 -26 -206 -41 -268 -51 -227
-175 -475 -323 -654 l-53 -63 -64 63 c-51 50 -69 62 -93 61 -26 -1 -43 12
-101 70 -55 56 -69 76 -64 91 11 34 5 111 -11 157 -45 128 -177 256 -303 294
-60 17 -148 15 -180 -5 -110 -67 -75 -268 73 -416 97 -97 236 -152 314 -125
29 10 33 8 104 -63 64 -63 74 -77 69 -100 -4 -23 5 -37 59 -92 l64 -64 -50
-45 c-69 -61 -222 -161 -330 -216 -120 -61 -309 -127 -415 -144 -14 -2 -34 -6
-46 -9 -11 -2 -45 -7 -75 -10 -30 -4 -66 -8 -81 -10 l-28 -3 0 99 c0 94 -2
101 -25 123 -22 21 -25 31 -25 98 l0 74 70 57 c39 31 70 63 71 70 6 70 3 519
-4 540 -10 30 -42 57 -69 57 -17 0 -18 -18 -18 -275 0 -247 -2 -275 -17 -283
-11 -6 -25 -6 -39 0 l-23 11 2 270 2 270 33 3 c88 10 218 76 296 151 286 274
219 757 -129 931 -51 25 -92 42 -115 47 -200 43 -343 15 -502 -102 l-47 -34
16 31 c23 46 12 134 -26 215 -57 123 -203 243 -318 261 -21 3 -39 7 -41 9 -1
1 -23 -2 -48 -6 l-45 -9 -70 73 c-58 60 -68 76 -64 98 5 21 -5 36 -61 91 l-66
65 68 55 c258 207 596 345 912 374 l62 5 0 -99 c0 -92 2 -100 25 -122 22 -21
25 -32 25 -91 l0 -67 -65 -47 c-36 -25 -72 -56 -79 -68 -21 -33 -17 -556 4
-582 16 -19 50 -34 65 -28 7 2 10 97 10 271 -1 147 1 274 3 284 5 22 36 29 59
13 17 -12 18 -33 17 -284 l-1 -271 39 0 c29 0 38 4 39 18 0 9 0 127 0 262 0
135 2 252 5 261 6 21 36 29 58 17 14 -8 16 -39 16 -283 0 -296 -1 -292 51
-265 41 22 45 52 43 310 -1 135 -2 254 -3 266 -1 24 -51 77 -103 111 l-38 23
0 78 c0 71 2 81 25 102 23 22 25 30 25 120 l0 97 43 -4 c23 -2 74 -8 112 -14z
m-1651 -168 c48 -50 32 -124 -33 -151 -73 -30 -138 47 -110 129 20 56 98 69
143 22z m2887 0 c74 -75 -13 -197 -103 -144 -78 45 -49 173 40 173 24 0 42 -8
63 -29z m-2719 -441 c57 -56 73 -65 107 -60 8 1 46 -31 86 -70 72 -72 72 -72
64 -111 -34 -149 114 -358 301 -426 55 -20 144 -24 185 -9 11 5 15 4 9 -1 -21
-15 -94 -136 -106 -175 -12 -39 -25 -48 -34 -24 -10 27 -59 32 -315 31 -292
-1 -279 2 -344 -88 l-40 -56 -77 -1 c-69 0 -80 3 -102 25 -23 23 -32 25 -121
25 l-96 0 6 63 c28 301 166 635 364 879 25 31 48 57 50 57 2 1 30 -26 63 -59z
m1307 -714 c91 -21 196 -111 238 -203 105 -229 -57 -503 -307 -519 -234 -16
-419 184 -388 419 23 182 187 320 368 312 36 -2 76 -6 89 -9z m-693 -253 c-2
-16 -5 -33 -5 -40 -1 -9 -66 -12 -261 -11 -280 1 -289 3 -276 53 l6 25 271 0
270 0 -5 -27z m-1405 -23 c10 -6 25 -23 32 -38 45 -91 -62 -175 -139 -108 -40
33 -40 99 0 132 29 25 74 31 107 14z m4100 -1 c50 -26 54 -115 6 -151 -55 -43
-147 2 -147 72 0 65 82 111 141 79z m-2661 -179 c19 -90 54 -168 104 -233 29
-38 32 -46 15 -36 -31 16 -119 16 -171 -1 -108 -34 -224 -138 -280 -248 -29
-59 -33 -76 -33 -150 l-1 -82 -67 -68 c-58 -58 -72 -68 -96 -64 -24 3 -39 -7
-105 -73 -42 -43 -78 -76 -80 -74 -115 134 -202 268 -270 414 -40 86 -101 259
-111 314 -3 19 -8 37 -10 41 -6 10 -25 128 -31 203 l-7 67 97 0 c90 0 99 2
122 25 22 22 34 25 93 25 l69 0 32 -50 c17 -27 45 -62 62 -79 l30 -29 280 1
280 2 19 24 c10 13 19 33 19 45 0 21 -1 21 -257 20 -151 0 -263 3 -270 9 -7 5
-13 18 -13 28 0 42 13 44 295 44 l269 -1 16 -74z m291 -434 c59 -28 155 -55
200 -56 15 0 29 -6 31 -12 2 -7 4 -127 3 -267 -1 -231 -3 -255 -19 -267 -17
-12 -45 -9 -56 7 -3 4 -5 127 -5 273 0 260 0 266 -20 266 -24 -1 -48 -18 -62
-45 -6 -12 -10 -128 -9 -293 l1 -273 35 -30 c19 -16 54 -41 77 -57 l43 -27 0
-71 c0 -62 -3 -73 -25 -94 -22 -21 -25 -32 -27 -119 l-3 -96 -45 3 c-39 2
-162 22 -225 36 -250 55 -499 176 -704 342 l-60 48 64 67 c53 54 63 71 60 95
-2 24 8 40 68 100 65 66 74 71 97 62 77 -29 227 29 325 127 85 84 128 172 129
263 1 37 -3 78 -8 91 -8 22 -5 22 35 -11 24 -19 69 -47 100 -62z m-1131 -831
c59 -30 68 -98 21 -146 -59 -58 -147 -21 -156 66 -2 22 27 65 53 79 35 19 46
19 82 1z m2883 4 c63 -32 75 -102 28 -150 -50 -50 -131 -30 -150 37 -12 44 -2
74 36 102 32 24 55 27 86 11z m-1425 -619 c46 -39 46 -108 0 -143 -52 -39
-121 -17 -139 43 -26 86 72 156 139 100z"/>
</g>
</svg>
