<svg width="13" height="9" viewBox="0 0 13 9" fill="none" xmlns="http://www.w3.org/2000/svg">
<path d="M6.08287 8.25C6.23912 8.44531 6.4735 8.52344 6.74693 8.52344C6.98131 8.52344 7.21568 8.44531 7.411 8.25L12.7235 2.9375C12.8797 2.78125 12.9969 2.54688 12.9969 2.27344C12.9969 2.03906 12.8797 1.80469 12.7235 1.60938L11.8251 0.75C11.6297 0.59375 11.3954 0.476562 11.161 0.476562C10.8876 0.476562 10.6532 0.59375 10.4969 0.75L6.74693 4.5L2.99693 0.75C2.80162 0.59375 2.56725 0.476562 2.33287 0.476562C2.05943 0.476562 1.82506 0.59375 1.66881 0.75L0.770372 1.60938C0.57506 1.80469 0.496935 2.03906 0.496935 2.27344C0.496935 2.54688 0.57506 2.78125 0.770372 2.9375L6.08287 8.25Z" fill="#333333" fill-opacity="0.5"/>
</svg>
